<?xml version="1.0" standalone="no"?><!DOCTYPE svg PUBLIC "-//W3C//DTD SVG 1.1//EN" "http://www.w3.org/Graphics/SVG/1.1/DTD/svg11.dtd"><svg t="1698662252800" class="icon" viewBox="0 0 1024 1024" version="1.1" xmlns="http://www.w3.org/2000/svg" p-id="1465" width="16" height="16" xmlns:xlink="http://www.w3.org/1999/xlink"><path d="M853.504 0H170.496C76.288 0 0 76.288 0 170.496v682.496C0 947.712 76.288 1024 170.496 1024h682.496c94.208 0 170.496-76.288 170.496-170.496V170.496C1024 76.288 947.712 0 853.504 0z m97.28 853.504c0 53.76-43.52 97.792-97.792 97.792H170.496c-53.76 0-97.792-43.52-97.792-97.792V170.496c0-53.76 43.52-97.792 97.792-97.792h682.496c53.76 0 97.792 43.52 97.792 97.792v683.008z" fill="#50B4FF" p-id="1466"></path><path d="M796.672 568.832h-227.84v227.84H455.168v-227.84H227.328V455.168h227.84V227.328h113.664v227.84h227.84z" fill="#50B4FF" p-id="1467"></path></svg>